# xmcd CD database file
#
# Track frame offsets:
#	150
#	23062
#	42920
#	59918
#	81989
#	98000
#	113746
#	136689
#	152530
#	169947
#	186641
#	201880
#	220698
#
# Disc length: 3116 seconds
#
# Revision: 0
# Processed by: cddbd v1.5.1PL2 Copyright (c) Steve Scherf et al.
# Submitted via: CDex 1.50beta9
#
DISCID=b30c2a0d
DTITLE=The Hot Paddlewheel Jazzband - When My Dreamboat Comes Home
DYEAR=2004
DGENRE=Jazz
TTITLE0=That's A Plenty
TTITLE1=Preservation Hall Song
TTITLE2=Memories
TTITLE3=Goody, Goody
TTITLE4=Blues My Naughty Sweety Gives To Me
TTITLE5=On A Coconut Island
TTITLE6=Joe Avery's Piece
TTITLE7=Was It A Dream
TTITLE8=Jambalaya
TTITLE9=Sing On
TTITLE10=Just A Little While
TTITLE11=South Of The Border
TTITLE12=When My Dreamboat Comes Home
EXTD=YEAR: 2004
EXTT0=
EXTT1=
EXTT2=
EXTT3=
EXTT4=
EXTT5=
EXTT6=
EXTT7=
EXTT8=
EXTT9=
EXTT10=
EXTT11=
EXTT12=
PLAYORDER=
